<?xml version="1.0" encoding="UTF-8" standalone="no"?>
<svg
   width="110"
   height="146"
   viewBox="0 0 110 146"
   version="1.1"
   xml:space="preserve"
   style="clip-rule:evenodd;fill-rule:evenodd;stroke-linejoin:round;stroke-miterlimit:2"
   id="svg4"
   xmlns="http://www.w3.org/2000/svg"
   xmlns:svg="http://www.w3.org/2000/svg"><defs
   id="defs4" />
    <g
   transform="translate(-18.0888,0.00208333)"
   id="g4">
        <g
   transform="scale(4.16667)"
   id="g3">
            <g
   transform="translate(19.1243,1.0485)"
   id="g1">
                <path
   d="m 0,33.165 c 3.516,-4.4 11.535,-15.064 11.535,-21.054 0,-7.265 -5.894,-13.16 -13.159,-13.16 -7.265,0 -13.159,5.895 -13.159,13.16 0,5.99 8.018,16.654 11.534,21.054 0.843,1.049 2.406,1.049 3.249,0"
   style="fill:#29c3d0;fill-rule:nonzero"
   id="path1" />
            </g>
            <g
   transform="matrix(0.0332373,0,0,0.0332373,6.86382,1.23428)"
   id="g2">
                <path
   d="m 320,64 c 14.7,0 28.2,8.1 35.2,21 l 216,400 c 6.7,12.4 6.4,27.4 -0.8,39.5 C 563.2,536.6 550.1,544 536,544 H 104 C 89.9,544 76.8,536.6 69.6,524.5 62.4,512.4 62.1,497.4 68.8,485 l 216,-400 c 7,-12.9 20.5,-21 35.2,-21 z m 0,352 c -17.7,0 -32,14.3 -32,32 0,17.7 14.3,32 32,32 17.7,0 32,-14.3 32,-32 0,-17.7 -14.3,-32 -32,-32 z m 0,-192 c -18.2,0 -32.7,15.5 -31.4,33.7 l 7.4,104 c 0.9,12.5 11.4,22.3 23.9,22.3 12.6,0 23,-9.7 23.9,-22.3 l 7.4,-104 C 352.5,239.5 338.1,224 319.8,224 Z"
   style="fill:#ffffff;fill-rule:nonzero"
   id="path2" />
            </g>
        </g>
    </g>
</svg>
