<?xml version="1.0" encoding="UTF-8" standalone="no"?>
<svg
   width="110"
   height="146"
   viewBox="0 0 110 146"
   version="1.1"
   xml:space="preserve"
   style="clip-rule:evenodd;fill-rule:evenodd;stroke-linejoin:round;stroke-miterlimit:2"
   id="svg4"
   xmlns="http://www.w3.org/2000/svg"
   xmlns:svg="http://www.w3.org/2000/svg"><defs
   id="defs4" />
    <g
   transform="translate(-18.0888,0.00208333)"
   id="g4">
        <g
   transform="scale(4.16667)"
   id="g3">
            <g
   transform="translate(19.1243,1.0485)"
   id="g1">
                <path
   d="m 0,33.165 c 3.516,-4.4 11.535,-15.064 11.535,-21.054 0,-7.265 -5.894,-13.16 -13.159,-13.16 -7.265,0 -13.159,5.895 -13.159,13.16 0,5.99 8.018,16.654 11.534,21.054 0.843,1.049 2.406,1.049 3.249,0"
   style="fill:#ff8735;fill-rule:nonzero"
   id="path1" />
            </g>
            <g
   transform="matrix(0.0327994,0,0,0.0327994,7.00394,2.78558)"
   id="g2">
                <path
   d="m 320,64 c 35.3,0 64,28.7 64,64 0,35.3 -28.7,64 -64,64 -35.3,0 -64,-28.7 -64,-64 0,-35.3 28.7,-64 64,-64 z m 96,312 c 0,25 -12.7,47 -32,59.9 V 528 c 0,26.5 -21.5,48 -48,48 h -32 c -26.5,0 -48,-21.5 -48,-48 V 435.9 C 236.7,423 224,401 224,376 v -40 c 0,-53 43,-96 96,-96 53,0 96,43 96,96 z M 160,96 c 30.9,0 56,25.1 56,56 0,30.9 -25.1,56 -56,56 -30.9,0 -56,-25.1 -56,-56 0,-30.9 25.1,-56 56,-56 z m 16,240 v 32 c 0,32.5 12.1,62.1 32,84.7 V 528 c 0,1.2 0,2.5 0.1,3.7 -8.5,7.6 -19.7,12.3 -32.1,12.3 H 144 C 117.5,544 96,522.5 96,496 V 439.4 C 76.9,428.4 64,407.7 64,384 v -32 c 0,-53 43,-96 96,-96 12.7,0 24.8,2.5 35.9,6.9 C 183.3,284.3 176,309.3 176,336 Z m 256,192 v -75.3 c 19.9,-22.5 32,-52.2 32,-84.7 v -32 c 0,-26.7 -7.3,-51.6 -19.9,-73.1 11.1,-4.5 23.2,-6.9 35.9,-6.9 53,0 96,43 96,96 v 32 c 0,23.7 -12.9,44.4 -32,55.4 V 496 c 0,26.5 -21.5,48 -48,48 h -32 c -12.3,0 -23.6,-4.6 -32.1,-12.3 0,-1.2 0.1,-2.5 0.1,-3.7 z M 480,96 c 30.9,0 56,25.1 56,56 0,30.9 -25.1,56 -56,56 -30.9,0 -56,-25.1 -56,-56 0,-30.9 25.1,-56 56,-56 z"
   style="fill:#ffffff;fill-rule:nonzero"
   id="path2" />
            </g>
        </g>
    </g>
</svg>
