<?xml version="1.0" encoding="UTF-8" standalone="no"?>
<svg
   width="110"
   height="146"
   viewBox="0 0 110 146"
   version="1.1"
   xml:space="preserve"
   style="clip-rule:evenodd;fill-rule:evenodd;stroke-linejoin:round;stroke-miterlimit:2"
   id="svg4"
   xmlns="http://www.w3.org/2000/svg"
   xmlns:svg="http://www.w3.org/2000/svg"><defs
   id="defs4" />
    <g
   transform="translate(-18.0888,0.00208333)"
   id="g4">
        <g
   transform="scale(4.16667)"
   id="g3">
            <g
   transform="translate(19.1243,1.0485)"
   id="g1">
                <path
   d="m 0,33.165 c 3.516,-4.4 11.535,-15.064 11.535,-21.054 0,-7.265 -5.894,-13.16 -13.159,-13.16 -7.265,0 -13.159,5.895 -13.159,13.16 0,5.99 8.018,16.654 11.534,21.054 0.843,1.049 2.406,1.049 3.249,0"
   style="fill:#f353a8;fill-rule:nonzero"
   id="path1" />
            </g>
            <g
   transform="matrix(0.0311523,0,0,0.0311523,7.53128,3.31267)"
   id="g2">
                <path
   d="M 416,64 H 224 c -17.7,0 -32,14.3 -32,32 0,17.7 14.3,32 32,32 V 279.5 L 103.5,490.3 c -4.9,8.7 -7.5,18.4 -7.5,28.4 0,31.7 25.6,57.3 57.3,57.3 h 333.4 c 31.6,0 57.3,-25.6 57.3,-57.3 0,-10 -2.6,-19.8 -7.5,-28.4 L 416,279.5 V 128 c 17.7,0 32,-14.3 32,-32 0,-17.7 -14.3,-32 -32,-32 z M 288,279.5 V 128 h 64 v 151.5 c 0,11.1 2.9,22.1 8.4,31.8 L 402,384 H 238 l 41.6,-72.7 c 5.5,-9.7 8.4,-20.6 8.4,-31.8 z"
   style="fill:#ffffff;fill-rule:nonzero"
   id="path2" />
            </g>
        </g>
    </g>
</svg>
