<?xml version="1.0" encoding="UTF-8" standalone="no"?>
<svg
   width="110"
   height="146"
   viewBox="0 0 110 146"
   version="1.1"
   xml:space="preserve"
   style="clip-rule:evenodd;fill-rule:evenodd;stroke-linejoin:round;stroke-miterlimit:2"
   id="svg4"
   xmlns="http://www.w3.org/2000/svg"
   xmlns:svg="http://www.w3.org/2000/svg"><defs
   id="defs4" />
    <g
   transform="translate(-18.0888,0.00208333)"
   id="g4">
        <g
   transform="scale(4.16667)"
   id="g3">
            <g
   transform="translate(19.1243,1.0485)"
   id="g1">
                <path
   d="m 0,33.165 c 3.516,-4.4 11.535,-15.064 11.535,-21.054 0,-7.265 -5.894,-13.16 -13.159,-13.16 -7.265,0 -13.159,5.895 -13.159,13.16 0,5.99 8.018,16.654 11.534,21.054 0.843,1.049 2.406,1.049 3.249,0"
   style="fill:#f2af0d;fill-rule:nonzero"
   id="path1" />
            </g>
            <g
   transform="matrix(0.0311214,0,0,0.0311214,7.54089,3.32254)"
   id="g2">
                <path
   d="m 448,128 c 106,0 192,86 192,192 0,106 -86,192 -192,192 H 192 C 86,512 0,426 0,320 0,214 86,128 192,128 Z M 192,240 c -13.3,0 -24,10.7 -24,24 v 32 h -32 c -13.3,0 -24,10.7 -24,24 0,13.3 10.7,24 24,24 h 32 v 32 c 0,13.3 10.7,24 24,24 13.3,0 24,-10.7 24,-24 v -32 h 32 c 13.3,0 24,-10.7 24,-24 0,-13.3 -10.7,-24 -24,-24 h -32 v -32 c 0,-13.3 -10.7,-24 -24,-24 z m 240,96 c -17.7,0 -32,14.3 -32,32 0,17.7 14.3,32 32,32 17.7,0 32,-14.3 32,-32 0,-17.7 -14.3,-32 -32,-32 z m 64,-96 c -17.7,0 -32,14.3 -32,32 0,17.7 14.3,32 32,32 17.7,0 32,-14.3 32,-32 0,-17.7 -14.3,-32 -32,-32 z"
   style="fill:#ffffff;fill-rule:nonzero"
   id="path2" />
            </g>
        </g>
    </g>
</svg>
