<?xml version="1.0" encoding="UTF-8" standalone="no"?>
<svg
   width="110"
   height="146"
   viewBox="0 0 110 146"
   version="1.1"
   xml:space="preserve"
   style="clip-rule:evenodd;fill-rule:evenodd;stroke-linejoin:round;stroke-miterlimit:2"
   id="svg4"
   xmlns="http://www.w3.org/2000/svg"
   xmlns:svg="http://www.w3.org/2000/svg"><defs
   id="defs4" />
    <g
   transform="translate(-18.0888,0.00208333)"
   id="g4">
        <g
   transform="scale(4.16667)"
   id="g3">
            <g
   transform="translate(19.1243,1.0485)"
   id="g1">
                <path
   d="m 0,33.165 c 3.516,-4.4 11.535,-15.064 11.535,-21.054 0,-7.265 -5.894,-13.16 -13.159,-13.16 -7.265,0 -13.159,5.895 -13.159,13.16 0,5.99 8.018,16.654 11.534,21.054 0.843,1.049 2.406,1.049 3.249,0"
   style="fill:#0078fe;fill-rule:nonzero"
   id="path1" />
            </g>
            <g
   transform="matrix(0.0282203,0,0,0.0282203,8.46925,4.70242)"
   id="g2">
                <path
   d="m 320,32 c 22.1,0 40,17.9 40,40 0,22.1 -17.9,40 -40,40 -22.1,0 -40,-17.9 -40,-40 0,-22.1 17.9,-40 40,-40 z M 40,128 c 22.1,0 40,17.9 40,40 v 160.2 c 0,17 6.7,33.3 18.7,45.3 l 51.1,51.1 c 8.3,8.3 21.3,9.6 31,3.1 12.9,-8.6 14.7,-26.9 3.7,-37.8 -7.3,-7.3 -23.1,-23.1 -47.2,-47.2 -12.5,-12.5 -12.5,-32.8 0,-45.3 12.5,-12.5 32.8,-12.5 45.3,0 24.1,24.1 72.5,72.5 72.5,72.5 21,21 32.8,49.5 32.8,79.2 V 528 c 0,26.5 -21.5,48 -48,48 h -66.7 c -17,0 -33.3,-6.7 -45.3,-18.7 L 28.1,457.4 C 10.1,439.4 0,415 0,389.5 V 168 c 0,-22.1 17.9,-40 40,-40 z m 560,0 c 22.1,0 40,17.9 40,40 v 221.5 c 0,25.5 -10.1,49.9 -28.1,67.9 L 512,557.3 c -12,12 -28.3,18.7 -45.3,18.7 H 400 c -26.5,0 -48,-21.5 -48,-48 v -78.9 c 0,-29.7 11.8,-58.2 32.8,-79.2 0,0 48.4,-48.4 72.5,-72.5 12.5,-12.5 32.8,-12.5 45.3,0 12.5,12.5 12.5,32.8 0,45.3 -24.1,24.1 -39.9,39.9 -47.2,47.2 -11,11 -9.2,29.2 3.7,37.8 9.7,6.5 22.7,5.2 31,-3.1 l 51.1,-51.1 c 12,-12 18.7,-28.3 18.7,-45.3 L 560,168 c 0,-22.1 17.9,-40 40,-40 z m -215.5,85 -19.8,-16.7 11.1,88.8 c 1.6,13.2 -7.7,25.1 -20.8,26.8 -13.1,1.7 -25.1,-7.7 -26.8,-20.8 l -4.4,-35 h -7.6 l -4.4,35 c -1.6,13.2 -13.6,22.5 -26.8,20.8 -13.2,-1.7 -22.5,-13.6 -20.8,-26.8 l 11.1,-88.8 -19.8,16.7 c -10.1,8.6 -25.3,7.3 -33.8,-2.8 -8.5,-10.1 -7.3,-25.3 2.8,-33.8 l 27.9,-23.6 c 18.9,-16 42.9,-24.8 67.6,-24.8 24.7,0 48.7,8.8 67.6,24.7 l 27.9,23.6 c 10.1,8.6 11.4,23.7 2.8,33.8 -8.6,10.1 -23.7,11.4 -33.8,2.8 z"
   style="fill:#ffffff;fill-rule:nonzero"
   id="path2" />
            </g>
        </g>
    </g>
</svg>
