<?xml version="1.0" encoding="UTF-8" standalone="no"?>
<svg
   width="110"
   height="146"
   viewBox="0 0 110 146"
   version="1.1"
   xml:space="preserve"
   style="clip-rule:evenodd;fill-rule:evenodd;stroke-linejoin:round;stroke-miterlimit:2"
   id="svg6"
   xmlns="http://www.w3.org/2000/svg"
   xmlns:svg="http://www.w3.org/2000/svg"><defs
   id="defs6" />
    <g
   transform="translate(-18.0888,0.00208333)"
   id="g6">
        <g
   transform="scale(4.16667)"
   id="g5">
            <g
   transform="translate(19.1243,1.0485)"
   id="g1">
                <path
   d="m 0,33.165 c 3.516,-4.4 11.535,-15.064 11.535,-21.054 0,-7.265 -5.894,-13.16 -13.159,-13.16 -7.265,0 -13.159,5.895 -13.159,13.16 0,5.99 8.018,16.654 11.534,21.054 0.843,1.049 2.406,1.049 3.249,0"
   style="fill:#67ce25;fill-rule:nonzero"
   id="path1" />
            </g>
            <g
   transform="translate(5.4705e-4)"
   id="g4">
                <g
   transform="matrix(0.00678979,0,0,0.00678979,8.23285,3.87125)"
   id="g2">
                    <path
   d="m 1882.21,1091.86 h 410.6 c 167.57,0 303.61,136.05 303.61,303.62 v 607.22 c 0,116.94 -66.25,218.53 -163.24,269.24 l 88.58,167.22 c 20.42,38.75 13.34,86.25 -17.5,117.5 -30.83,31.25 -78.75,38.33 -117.5,17.5 l -402.99,-267.85 h -816.02 c -167.57,0 -303.61,-136.04 -303.61,-303.61 v -185.82 c 22.88,1.51 45.986,2.28 69.291,2.28 473.199,0 862.409,-315.51 948.779,-727.3 z"
   style="fill:#ffffff"
   id="path2" />
                </g>
                <g
   transform="matrix(0.00678979,0,0,0.00678979,8.23285,3.87125)"
   id="g3">
                    <path
   d="m 864.14,1649.78 c -85.96,-6.76 -167.992,-25.99 -244.042,-55.62 l -340,180 c -38.75,20.42 -86.25,13.33 -117.5,-17.5 -31.25,-30.83 -38.333,-78.75 -17.5,-117.5 l 148.333,-280 c -100.416,-122.5 -160,-275 -160,-440 0,-405 358.334,-733.333 800,-733.333 441.669,0 799.999,328.333 799.999,733.333 0,59.488 -7.73,117.32 -22.32,172.7 -84.74,321.67 -400.88,560.63 -777.679,560.63 -23.348,0 -46.458,-0.91 -69.291,-2.71 z"
   style="fill:#ffffff"
   id="path3" />
                </g>
            </g>
        </g>
    </g>
</svg>
