<?xml version="1.0" encoding="UTF-8" standalone="no"?>
<svg
   width="110"
   height="146"
   viewBox="0 0 110 146"
   version="1.1"
   xml:space="preserve"
   style="clip-rule:evenodd;fill-rule:evenodd;stroke-linejoin:round;stroke-miterlimit:2"
   id="svg4"
   xmlns="http://www.w3.org/2000/svg"
   xmlns:svg="http://www.w3.org/2000/svg"><defs
   id="defs4" />
    <g
   transform="translate(-18.0888,0.00208333)"
   id="g4">
        <g
   transform="scale(4.16667)"
   id="g3">
            <g
   transform="translate(19.1243,1.0485)"
   id="g1">
                <path
   d="m 0,33.165 c 3.516,-4.4 11.535,-15.064 11.535,-21.054 0,-7.265 -5.894,-13.16 -13.159,-13.16 -7.265,0 -13.159,5.895 -13.159,13.16 0,5.99 8.018,16.654 11.534,21.054 0.843,1.049 2.406,1.049 3.249,0"
   style="fill:#bd54e2;fill-rule:nonzero"
   id="path1" />
            </g>
            <g
   transform="matrix(0.0352685,0,0,0.0352685,6.2156,1.99547)"
   id="g2">
                <path
   d="m 576,320 v 2.7 C 575.6,359.2 542.4,384 505.9,384 H 408 c -26.5,0 -48,21.5 -48,48 0,3.4 0.4,6.7 1,9.9 2.1,10.2 6.5,20 10.8,29.9 6.1,13.8 12.1,27.5 12.1,42 0,31.8 -21.6,60.7 -53.4,62 -3.5,0.1 -7,0.2 -10.6,0.2 C 178.5,576 63.9,461.4 63.9,320 63.9,178.6 178.6,64 320,64 461.4,64 576,178.6 576,320 Z m -384,32 c 0,-17.7 -14.3,-32 -32,-32 -17.7,0 -32,14.3 -32,32 0,17.7 14.3,32 32,32 17.7,0 32,-14.3 32,-32 z m 0,-96 c 17.7,0 32,-14.3 32,-32 0,-17.7 -14.3,-32 -32,-32 -17.7,0 -32,14.3 -32,32 0,17.7 14.3,32 32,32 z m 160,-96 c 0,-17.7 -14.3,-32 -32,-32 -17.7,0 -32,14.3 -32,32 0,17.7 14.3,32 32,32 17.7,0 32,-14.3 32,-32 z m 96,96 c 17.7,0 32,-14.3 32,-32 0,-17.7 -14.3,-32 -32,-32 -17.7,0 -32,14.3 -32,32 0,17.7 14.3,32 32,32 z"
   style="fill:#ffffff;fill-rule:nonzero"
   id="path2" />
            </g>
        </g>
    </g>
</svg>
