<?xml version="1.0" encoding="UTF-8" standalone="no"?>
<svg
   width="110"
   height="146"
   viewBox="0 0 110 146"
   version="1.1"
   xml:space="preserve"
   style="clip-rule:evenodd;fill-rule:evenodd;stroke-linejoin:round;stroke-miterlimit:2"
   id="svg4"
   xmlns="http://www.w3.org/2000/svg"
   xmlns:svg="http://www.w3.org/2000/svg"><defs
   id="defs4" />
    <g
   transform="translate(-18.0888,0.00208333)"
   id="g4">
        <g
   transform="scale(4.16667)"
   id="g3">
            <g
   transform="translate(19.1243,1.0485)"
   id="g1">
                <path
   d="m 0,33.165 c 3.516,-4.4 11.535,-15.064 11.535,-21.054 0,-7.265 -5.894,-13.16 -13.159,-13.16 -7.265,0 -13.159,5.895 -13.159,13.16 0,5.99 8.018,16.654 11.534,21.054 0.843,1.049 2.406,1.049 3.249,0"
   style="fill:#f10000;fill-rule:nonzero"
   id="path1" />
            </g>
            <g
   transform="matrix(0.0286692,0,0,0.0286692,8.3256,3.57292)"
   id="g2">
                <path
   d="m 320,205.3 v 309.3 l 0.5,-0.2 C 375.1,491.7 433.7,480 492.8,480 H 512 V 160 h -19.2 c -42.2,0 -84.1,8.4 -123.1,24.6 -16.8,7 -33.4,13.9 -49.7,20.7 z M 294.9,125.5 320,136 345.1,125.5 C 391.9,106 442.1,96 492.8,96 H 528 c 26.5,0 48,21.5 48,48 v 352 c 0,26.5 -21.5,48 -48,48 h -35.2 c -50.7,0 -100.9,10 -147.7,29.5 l -12.8,5.3 c -7.9,3.3 -16.7,3.3 -24.6,0 l -12.8,-5.3 C 248.1,554 197.9,544 147.2,544 H 112 C 85.5,544 64,522.5 64,496 V 144 c 0,-26.5 21.5,-48 48,-48 h 35.2 c 50.7,0 100.9,10 147.7,29.5 z"
   style="fill:#ffffff;fill-rule:nonzero"
   id="path2" />
            </g>
        </g>
    </g>
</svg>
